<?xml version="1.0" encoding="UTF-8" standalone="no"?>
<!-- Created with Inkscape (http://www.inkscape.org/) -->

<svg
   xmlns:dc="http://purl.org/dc/elements/1.1/"
   xmlns:cc="http://creativecommons.org/ns#"
   xmlns:rdf="http://www.w3.org/1999/02/22-rdf-syntax-ns#"
   xmlns:svg="http://www.w3.org/2000/svg"
   xmlns="http://www.w3.org/2000/svg"
   xmlns:sodipodi="http://sodipodi.sourceforge.net/DTD/sodipodi-0.dtd"
   xmlns:inkscape="http://www.inkscape.org/namespaces/inkscape"
   width="12.347222mm"
   height="12.347222mm"
   viewBox="0 0 43.75 43.75"
   id="svg7979"
   version="1.1"
   inkscape:version="0.91 r13725"
   sodipodi:docname="car.svg">
  <defs
     id="defs7981" />
  <sodipodi:namedview
     id="base"
     pagecolor="#ffffff"
     bordercolor="#666666"
     borderopacity="1.0"
     inkscape:pageopacity="0.0"
     inkscape:pageshadow="2"
     inkscape:zoom="0.35"
     inkscape:cx="-172.76661"
     inkscape:cy="127.58929"
     inkscape:document-units="px"
     inkscape:current-layer="layer1"
     showgrid="false"
     fit-margin-top="0"
     fit-margin-left="0"
     fit-margin-right="0"
     fit-margin-bottom="0"
     inkscape:window-width="1920"
     inkscape:window-height="1058"
     inkscape:window-x="1912"
     inkscape:window-y="-8"
     inkscape:window-maximized="1" />
  <metadata
     id="metadata7984">
    <rdf:RDF>
      <cc:Work
         rdf:about="">
        <dc:format>image/svg+xml</dc:format>
        <dc:type
           rdf:resource="http://purl.org/dc/dcmitype/StillImage" />
        <dc:title></dc:title>
      </cc:Work>
    </rdf:RDF>
  </metadata>
  <g
     inkscape:label="Layer 1"
     inkscape:groupmode="layer"
     id="layer1"
     transform="translate(-46.338036,-616.20149)">
    <g
       id="g556"
       transform="matrix(1.25,0,0,-1.25,88.213036,638.07649)"
       inkscape:export-xdpi="90"
       inkscape:export-ydpi="90">
      <path
         d="m 0,0 c 0,-8.836 -7.163,-16 -16,-16 -8.837,0 -16,7.164 -16,16 0,8.836 7.163,16 16,16 C -7.163,16 0,8.836 0,0 Z"
         style="fill:none;stroke:#ffffff;stroke-width:3;stroke-linecap:butt;stroke-linejoin:miter;stroke-miterlimit:10;stroke-dasharray:none;stroke-opacity:1"
         id="path558"
         inkscape:connector-curvature="0" />
    </g>
    <g
       id="g560"
       transform="matrix(1.25,0,0,-1.25,62.252406,639.04929)"
       inkscape:export-xdpi="90"
       inkscape:export-ydpi="90">
      <path
         d="M 0,0 C 0.001,0.682 -0.509,1.209 -1.167,1.206 -1.815,1.203 -2.317,0.683 -2.319,0.013 -2.321,-0.668 -1.806,-1.202 -1.154,-1.197 -0.511,-1.192 -0.001,-0.664 0,0 M 11.58,-0.006 C 11.583,0.663 11.081,1.197 10.44,1.206 9.782,1.215 9.254,0.688 9.246,0.018 c -0.007,-0.666 0.521,-1.215 1.171,-1.215 0.642,-10e-4 1.161,0.53 1.163,1.191 m -1.515,2.612 c 0,0.052 0.007,0.08 -10e-4,0.101 C 9.711,3.661 9.361,4.615 9.002,5.566 8.866,5.927 8.592,6.093 8.206,6.093 5.827,6.091 3.447,6.095 1.068,6.089 0.592,6.088 0.395,5.935 0.228,5.488 0.009,4.903 -0.208,4.316 -0.425,3.73 -0.56,3.365 -0.694,3 -0.838,2.607 c 3.653,0 7.271,0 10.903,-0.001 m 3.002,-6.559 -1.341,0 c 0,-0.521 0.005,-1.02 -0.001,-1.52 -0.008,-0.551 -0.325,-1.006 -0.809,-1.184 -0.491,-0.18 -1.061,-0.047 -1.404,0.33 -0.264,0.29 -0.333,0.646 -0.337,1.021 -0.004,0.441 -0.001,0.882 -0.001,1.339 -3.039,0 -6.057,0 -9.103,10e-4 0,-0.454 0.001,-0.895 0,-1.335 -10e-4,-0.451 -0.096,-0.87 -0.476,-1.159 -0.422,-0.323 -0.893,-0.369 -1.368,-0.144 -0.459,0.216 -0.67,0.615 -0.688,1.11 -0.015,0.425 -0.002,0.851 -0.004,1.277 0,0.082 -0.006,0.163 -0.011,0.266 l -1.324,0 c -0.007,0.093 -0.017,0.165 -0.017,0.237 -10e-4,1.437 -0.003,2.873 0.001,4.311 0.002,0.922 0.52,1.625 1.391,1.93 0.083,0.03 0.167,0.132 0.201,0.219 0.426,1.078 0.842,2.159 1.26,3.241 0.383,0.989 0.959,1.408 2.011,1.411 2.389,0.009 4.778,0.01 7.168,0 1.04,-0.004 1.615,-0.42 1.995,-1.396 0.421,-1.08 0.84,-2.161 1.253,-3.244 0.052,-0.137 0.122,-0.204 0.266,-0.256 0.78,-0.277 1.293,-0.842 1.322,-1.659 0.056,-1.584 0.016,-3.171 0.016,-4.796"
         style="fill:#ffffff;fill-opacity:1;fill-rule:evenodd;stroke:none"
         id="path562"
         inkscape:connector-curvature="0" />
    </g>
  </g>
</svg>
