<?xml version="1.0" encoding="UTF-8" standalone="no"?>
<svg
   xmlns:dc="http://purl.org/dc/elements/1.1/"
   xmlns:cc="http://creativecommons.org/ns#"
   xmlns:rdf="http://www.w3.org/1999/02/22-rdf-syntax-ns#"
   xmlns:svg="http://www.w3.org/2000/svg"
   xmlns="http://www.w3.org/2000/svg"
   version="1.1"
   id="svg8571"
   viewBox="0 0 43.75 43.75"
   height="12.347222mm"
   width="12.347222mm">
  <defs
     id="defs8573" />
  <metadata
     id="metadata8576">
    <rdf:RDF>
      <cc:Work
         rdf:about="">
        <dc:format>image/svg+xml</dc:format>
        <dc:type
           rdf:resource="http://purl.org/dc/dcmitype/StillImage" />
        <dc:title></dc:title>
      </cc:Work>
    </rdf:RDF>
  </metadata>
  <g
     transform="translate(244.73214,-390.4872)"
     id="layer1">
    <g
       transform="matrix(1.25,0,0,-1.25,-216.80914,415.8295)"
       id="g540">
      <path
         id="path542"
         style="fill:#ffffff;fill-opacity:1;fill-rule:evenodd;stroke:none"
         d="M 0,0 C 0,0.598 -0.503,1.095 -1.099,1.086 -1.688,1.078 -2.171,0.592 -2.175,0.007 -2.178,-0.592 -1.684,-1.096 -1.092,-1.1 -0.504,-1.103 0,-0.595 0,0 m -8.395,0.007 c -0.005,-0.598 0.496,-1.109 1.083,-1.106 0.592,0.003 1.096,0.509 1.095,1.099 -0.001,0.582 -0.484,1.072 -1.074,1.086 -0.592,0.016 -1.1,-0.48 -1.104,-1.079 m 4.221,10.757 c -0.398,0 -0.796,0.005 -1.194,-0.002 -0.266,-0.004 -0.414,-0.148 -0.424,-0.411 -0.009,-0.223 -0.004,-0.446 -0.001,-0.669 0.004,-0.271 0.158,-0.421 0.417,-0.425 0.795,-0.009 1.591,-0.009 2.386,10e-4 0.261,0.004 0.409,0.159 0.412,0.43 0.002,0.204 0.004,0.407 0,0.611 -0.006,0.32 -0.145,0.46 -0.461,0.464 -0.378,0.004 -0.757,10e-4 -1.135,10e-4 m 0.018,-1.99 c -0.99,0 -1.979,0.002 -2.969,-10e-4 -0.803,-0.002 -1.282,-0.479 -1.289,-1.285 -0.004,-0.514 -0.005,-1.028 0,-1.542 0.009,-0.758 0.471,-1.251 1.23,-1.256 1.998,-0.014 3.996,-0.014 5.995,-0.001 0.758,0.005 1.221,0.498 1.231,1.256 0.006,0.504 0.004,1.009 0,1.513 -0.005,0.846 -0.475,1.315 -1.318,1.316 -0.959,0.001 -1.92,0 -2.88,0 m -6.552,-15.478 c 0.965,1.452 1.897,2.853 2.844,4.277 -0.055,0.025 -0.093,0.048 -0.133,0.061 -1.082,0.354 -1.751,1.272 -1.751,2.41 0,2.921 -0.001,5.841 0,8.762 10e-4,1.387 1.088,2.474 2.474,2.476 2.057,10e-4 4.114,10e-4 6.171,0 C 0.286,11.28 1.375,10.197 1.376,8.812 1.378,5.969 1.349,3.125 1.39,0.283 1.407,-0.899 0.807,-2.028 -0.513,-2.422 c 0.943,-1.416 1.88,-2.823 2.849,-4.281 -0.557,0 -1.065,-0.006 -1.572,0.009 -0.07,0.002 -0.151,0.104 -0.202,0.177 -0.605,0.879 -1.209,1.758 -1.804,2.643 -0.091,0.137 -0.186,0.192 -0.351,0.191 -1.728,-0.006 -3.455,-0.005 -5.182,0 -0.164,0 -0.262,-0.049 -0.353,-0.188 -0.588,-0.879 -1.19,-1.747 -1.775,-2.627 -0.106,-0.159 -0.215,-0.216 -0.401,-0.21 -0.446,0.013 -0.892,0.004 -1.404,0.004" />
    </g>
    <g
       transform="matrix(1.25,0,0,-1.25,-224.04489,400.5567)"
       id="g544">
      <path
         id="path546"
         style="fill:#ffffff;fill-opacity:1;fill-rule:evenodd;stroke:none"
         d="M 0,0 C -0.005,0.383 0.286,0.691 0.663,0.702 1.053,0.713 1.372,0.403 1.372,0.013 1.372,-0.364 1.068,-0.672 0.691,-0.678 0.32,-0.683 0.005,-0.375 0,0" />
    </g>
    <g
       transform="matrix(1.25,0,0,-1.25,-221.75239,400.5488)"
       id="g548">
      <path
         id="path550"
         style="fill:#ffffff;fill-opacity:1;fill-rule:evenodd;stroke:none"
         d="M 0,0 C -0.004,0.378 0.293,0.687 0.673,0.696 1.05,0.705 1.361,0.41 1.372,0.03 1.382,-0.359 1.069,-0.686 0.687,-0.685 0.312,-0.683 0.004,-0.376 0,0" />
    </g>
    <g
       transform="matrix(1.25,0,0,-1.25,-202.85714,412.3622)"
       id="g552">
      <path
         id="path554"
         style="fill:none;stroke:#ffffff;stroke-width:3;stroke-linecap:butt;stroke-linejoin:miter;stroke-miterlimit:10;stroke-dasharray:none;stroke-opacity:1"
         d="m 0,0 c 0,-8.836 -7.163,-16 -16,-16 -8.837,0 -16,7.164 -16,16 0,8.836 7.163,16 16,16 C -7.163,16 0,8.836 0,0 Z" />
    </g>
  </g>
</svg>
